<?xml version="1.0" encoding="UTF-8" standalone="no"?>

<svg
   xmlns:svg="http://www.w3.org/2000/svg"
   xmlns="http://www.w3.org/2000/svg"
   xmlns:xlink="http://www.w3.org/1999/xlink"
   width="18.1875"
   height="18.1875"
   id="svg2"
   version="1.1">
  <defs
     id="defs4">
    <linearGradient
       id="linearGradient3909">
      <stop
         style="stop-color:#d8d8d8;stop-opacity:1;"
         offset="0"
         id="stop3911" />
      <stop
         style="stop-color:#ffffff;stop-opacity:1;"
         offset="1"
         id="stop3913" />
    </linearGradient>
    <linearGradient
       id="linearGradient3093">
      <stop
         style="stop-color:#ff5151;stop-opacity:1;"
         offset="0"
         id="stop3095" />
      <stop
         style="stop-color:#b30000;stop-opacity:1;"
         offset="1"
         id="stop3097" />
    </linearGradient>
    <radialGradient
       xlink:href="#linearGradient3093"
       id="radialGradient3869"
       cx="353.1152"
       cy="206.00131"
       fx="353.1152"
       fy="206.00131"
       r="8.6249857"
       gradientTransform="matrix(2.2908936,0.99891146,-1.5141394,3.4725123,-143.59717,-861.58527)"
       gradientUnits="userSpaceOnUse" />
    <radialGradient
       xlink:href="#linearGradient3909"
       id="radialGradient3915"
       cx="360.34744"
       cy="219.80618"
       fx="360.34744"
       fy="219.80618"
       r="8.59375"
       gradientUnits="userSpaceOnUse"
       gradientTransform="matrix(1.0121607,-1.7223092,1.6328904,0.95961142,-361.33645,627.4512)" />
    <radialGradient
       xlink:href="#linearGradient3093"
       id="radialGradient3065"
       gradientUnits="userSpaceOnUse"
       gradientTransform="matrix(2.2908936,0.99891146,-1.5141394,3.4725123,-143.59717,-861.58527)"
       cx="353.1152"
       cy="206.00131"
       fx="353.1152"
       fy="206.00131"
       r="8.6249857" />
    <linearGradient
       id="linearGradient3909-6">
      <stop
         style="stop-color:#d8d8d8;stop-opacity:1;"
         offset="0"
         id="stop3911-3" />
      <stop
         style="stop-color:#ffffff;stop-opacity:1;"
         offset="1"
         id="stop3913-0" />
    </linearGradient>
    <radialGradient
       xlink:href="#linearGradient3093-4"
       id="radialGradient3065-8"
       gradientUnits="userSpaceOnUse"
       gradientTransform="matrix(2.2908936,0.99891146,-1.5141394,3.4725123,-493.00342,-1063.3665)"
       cx="353.1152"
       cy="206.00131"
       fx="353.1152"
       fy="206.00131"
       r="8.6249857" />
    <linearGradient
       id="linearGradient3093-4">
      <stop
         style="stop-color:#ff5151;stop-opacity:1;"
         offset="0"
         id="stop3095-0" />
      <stop
         style="stop-color:#b30000;stop-opacity:1;"
         offset="1"
         id="stop3097-4" />
    </linearGradient>
    <radialGradient
       r="8.59375"
       fy="219.80618"
       fx="360.34744"
       cy="219.80618"
       cx="360.34744"
       gradientTransform="matrix(1.0121607,-1.7223092,1.6328904,0.95961142,-361.33645,627.4512)"
       gradientUnits="userSpaceOnUse"
       id="radialGradient3091"
       xlink:href="#linearGradient3909-6" />
  </defs>
  <path
     id="path3091"
     transform="translate(-349.40625,-201.78125)"
     d="m 358.5,202.28125 c -4.74604,0 -8.59375,3.84771 -8.59375,8.59375 0,4.74604 3.84771,8.59375 8.59375,8.59375 4.74604,0 8.59375,-3.84771 8.59375,-8.59375 0,-4.74604 -3.84771,-8.59375 -8.59375,-8.59375 z"
     style="fill:url(#radialGradient3091);fill-opacity:1;fill-rule:nonzero;stroke:none;" />
  <path
     id="path3076"
     d="m 9.09375,0.59375 c -4.69442,0 -8.5,3.80558 -8.5,8.5 0,0.0218 -1.6e-4,0.0407 0,0.0625 0.001,0.15329 0.0221,0.28625 0.0312,0.4375 l 0.15625,0 C 2.88126,13.53083 13.40003,16.2913 17.4062,10.5 l 0.15625,-0.625 c 0.0242,-0.26138 0.0312,-0.51354 0.0312,-0.78125 0,-4.69442 -3.80558,-8.5 -8.5,-8.5 z"
     style="fill:url(#radialGradient3065-8);fill-opacity:1;stroke:#ff0000;stroke-width:0.25;stroke-linecap:butt;stroke-linejoin:miter;stroke-opacity:1;" />
  <path
     id="path3061"
     d="m 9.09375,0.09375 c -4.96464,0 -9,4.03536 -9,9 0,4.96464 4.03536,9 9,9 4.96464,0 9,-4.03536 9,-9 0,-4.96464 -4.03536,-9 -9,-9 z m 0,1 c 4.4242,0 8,3.5758 8,8 0,4.4242 -3.5758,8 -8,8 -4.4242,0 -8,-3.5758 -8,-8 0,-4.4242 3.5758,-8 8,-8 z"
     style="fill:#000000;fill-opacity:1;fill-rule:nonzero;stroke:none;" />
  <path
     id="path3063"
     d="m 0.59375,9.15235 c 1.49997,4.16762 12.6645,7.34854 16.82144,1.33929"
     style="fill:none;stroke:#000000;stroke-width:0.69999999;stroke-linecap:butt;stroke-linejoin:miter;stroke-miterlimit:4;stroke-opacity:1;stroke-dasharray:none;" />
  <path
     id="path3074"
     transform="matrix(1.0763295,0.22289513,-0.09994727,1.096644,-354.73458,-300.57772)"
     d="m 357.41072,213.88004 a 1.6964285,1.6964285 0 1 1 -3.39285,0 1.6964285,1.6964285 0 1 1 3.39285,0 z"
     style="fill:#ffffff;fill-opacity:1;stroke:#000000;stroke-width:0.65827781;stroke-linecap:round;stroke-linejoin:miter;stroke-miterlimit:4;stroke-opacity:1;stroke-dasharray:none;stroke-dashoffset:0;" />
</svg>
